<?xml version="1.0" encoding="UTF-8"?>
<svg width="80px" height="80px" viewBox="0 0 24 24" fill="none" xmlns="http://www.w3.org/2000/svg">
<path d="M12 22C17.5228 22 22 17.5228 22 12C22 6.47715 17.5228 2 12 2C6.47715 2 2 6.47715 2 12C2 17.5228 6.47715 22 12 22Z" stroke="white" stroke-width="1.5"/>
<path d="M8.0001 9.89998C7.5601 9.89998 7.1001 9.49998 7.1001 8.99998C7.1001 8.49998 7.4701 8.09998 8.0001 8.09998" stroke="white" stroke-width="1.5" stroke-linecap="round" stroke-linejoin="round"/>
<path d="M7.9999 8.1C8.4399 8.1 8.8999 8.5 8.8999 9C8.8999 9.5 8.5299 9.9 7.9999 9.9" stroke="white" stroke-width="1.5" stroke-linecap="round" stroke-linejoin="round"/>
<path d="M16.0001 9.89998C15.5601 9.89998 15.1001 9.49998 15.1001 8.99998C15.1001 8.49998 15.4701 8.09998 16.0001 8.09998" stroke="white" stroke-width="1.5" stroke-linecap="round" stroke-linejoin="round"/>
<path d="M15.9999 8.1C16.4399 8.1 16.8999 8.5 16.8999 9C16.8999 9.5 16.5299 9.9 15.9999 9.9" stroke="white" stroke-width="1.5" stroke-linecap="round" stroke-linejoin="round"/>
<path d="M12 14.7C11 14.7 10.2 13.8 10.2 12.7H13.9C13.9 13.8 13 14.7 12 14.7Z" stroke="white" stroke-width="1.5" stroke-linecap="round" stroke-linejoin="round"/>
</svg>
